<?xml version="1.0" encoding="utf-8"?>
<!-- Generator: Adobe Illustrator 16.0.0, SVG Export Plug-In . SVG Version: 6.00 Build 0)  -->
<!DOCTYPE svg PUBLIC "-//W3C//DTD SVG 1.1//EN" "http://www.w3.org/Graphics/SVG/1.1/DTD/svg11.dtd">
<svg version="1.1" id="圖層_1" xmlns="http://www.w3.org/2000/svg" xmlns:xlink="http://www.w3.org/1999/xlink" x="0px" y="0px"
	 width="489.189px" height="489.189px" viewBox="0 0 489.189 489.189" enable-background="new 0 0 489.189 489.189"
	 xml:space="preserve">
<g>
	<path d="M470.898,416.167H18.25c-10.08,0-18.252-8.172-18.252-18.252V91.283c0-10.081,8.172-18.254,18.252-18.254l0,0h452.647
		c10.079,0,18.253,8.174,18.253,18.254l0,0v306.633C489.15,407.995,480.979,416.167,470.898,416.167z M36.502,379.663h416.146
		V109.534H36.502V379.663z"/>
	<path d="M244.574,330.992c-4.771-0.001-9.354-1.87-12.767-5.208L5.485,104.326c-7.203-7.059-7.323-18.616-0.268-25.82
		s18.616-7.324,25.82-0.27l0,0l213.536,208.948l213.56-208.947c7.204-7.057,18.766-6.937,25.821,0.27
		c7.056,7.204,6.936,18.764-0.27,25.82L257.361,325.783C253.945,329.127,249.354,330.996,244.574,330.992z"/>
	<path d="M18.25,416.167c-10.08-0.038-18.221-8.24-18.185-18.32c0.021-5.139,2.204-10.028,6.017-13.475l162.893-147.187
		c7.323-6.927,18.875-6.604,25.802,0.719c6.929,7.322,6.605,18.876-0.718,25.804c-0.204,0.192-0.413,0.382-0.627,0.564
		L30.479,411.506C27.119,414.516,22.762,416.177,18.25,416.167z"/>
	<path d="M470.887,416.167c-4.5-0.008-8.836-1.688-12.168-4.709L295.765,264.224c-7.322-6.928-7.645-18.479-0.718-25.803
		c6.701-7.085,17.788-7.649,25.177-1.283l162.952,147.232c7.479,6.757,8.064,18.299,1.31,25.777
		C481.01,413.995,476.066,416.18,470.887,416.167z"/>
</g>
</svg>
